HIERARCHY
ROOT root
{
	OFFSET 0.000000 0.000000 0.000000
	CHANNELS 6 Xposition Yposition Zposition Zrotation Yrotation Xrotation
	JOINT lhip
	{
		OFFSET 0.058581 -0.082280 -0.017664
		CHANNELS 3 Zrotation Yrotation Xrotation
		JOINT lknee
		{
			OFFSET 0.043451 -0.386469 0.008037
			CHANNELS 3 Zrotation Yrotation Xrotation
			JOINT lankle
			{
				OFFSET -0.014790 -0.426874 -0.037428
				CHANNELS 3 Zrotation Yrotation Xrotation
				JOINT ltoe
				{
					OFFSET 0.041054 -0.060286 0.122042
					CHANNELS 3 Zrotation Yrotation Xrotation
					End Site
					{
						OFFSET 0.000000 0.000000 0.000000
					}
				}
			}
		}
	}
	JOINT rhip
	{
		OFFSET -0.060310 -0.090513 -0.013543
		CHANNELS 3 Zrotation Yrotation Xrotation
		JOINT rknee
		{
			OFFSET -0.043257 -0.383688 -0.004843
			CHANNELS 3 Zrotation Yrotation Xrotation
			JOINT rankle
			{
				OFFSET 0.019056 -0.420046 -0.034562
				CHANNELS 3 Zrotation Yrotation Xrotation
				JOINT rtoe
				{
					OFFSET -0.034840 -0.062106 0.130323
					CHANNELS 3 Zrotation Yrotation Xrotation
					End Site
					{
						OFFSET 0.000000 0.000000 0.000000
					}
				}
			}
		}
	}
	JOINT lowerback
	{
		OFFSET 0.004439 0.124404 -0.038385
		CHANNELS 3 Zrotation Yrotation Xrotation
		JOINT upperback
		{
			OFFSET 0.004488 0.137956 0.026820
			CHANNELS 3 Zrotation Yrotation Xrotation
			JOINT chest
			{
				OFFSET -0.002265 0.056032 0.002855
				CHANNELS 3 Zrotation Yrotation Xrotation
				JOINT lowerneck
				{
					OFFSET -0.013390 0.211636 -0.033468
					CHANNELS 3 Zrotation Yrotation Xrotation
					JOINT upperneck
					{
						OFFSET 0.010113 0.088937 0.050410
						CHANNELS 3 Zrotation Yrotation Xrotation
						End Site
						{
							OFFSET 0.000000 0.000000 0.000000
						}
					}
				}
				JOINT lclavicle
				{
					OFFSET 0.071702 0.114000 -0.018898
					CHANNELS 3 Zrotation Yrotation Xrotation
					JOINT lshoulder
					{
						OFFSET 0.122921 0.045205 -0.019046
						CHANNELS 3 Zrotation Yrotation Xrotation
						JOINT lelbow
						{
							OFFSET 0.255332 -0.015649 -0.022946
							CHANNELS 3 Zrotation Yrotation Xrotation
							JOINT lwrist
							{
								OFFSET 0.265709 0.012698 -0.007375
								CHANNELS 3 Zrotation Yrotation Xrotation
								End Site
								{
									OFFSET 0.000000 0.000000 0.000000
								}
							}
						}
					}
				}
				JOINT rclavicle
				{
					OFFSET -0.082954 0.112472 -0.023707
					CHANNELS 3 Zrotation Yrotation Xrotation
					JOINT rshoulder
					{
						OFFSET -0.113228 0.046853 -0.008472
						CHANNELS 3 Zrotation Yrotation Xrotation
						JOINT relbow
						{
							OFFSET -0.260127 -0.014369 -0.031269
							CHANNELS 3 Zrotation Yrotation Xrotation
							JOINT rwrist
							{
								OFFSET -0.269108 0.006794 -0.006027
								CHANNELS 3 Zrotation Yrotation Xrotation
								End Site
								{
									OFFSET 0.000000 0.000000 0.000000
								}
							}
						}
					}
				}
			}
		}
	}
}
MOTION
Frames: 16
Frame Time: 0.033333
0.331320 0.199208 0.996873 91.854921 -1.624556 89.094745 5.342310 4.943122 0.917216 -4.556677 -3.445586 1.877565 -0.062629 8.146488 -4.165010 0.000000 -0.000000 0.000000 -9.763259 -5.954389 -0.398246 0.987571 -1.997806 5.296567 6.149424 -5.614133 -5.158187 0.000000 -0.000000 0.000000 -2.603272 1.960508 1.918644 3.018514 -7.693385 18.565867 0.160441 1.971747 -5.353598 -8.593871 -8.717523 22.898318 13.118363 0.378289 9.592309 -24.631836 -15.106905 6.500745 -49.768137 -21.348776 35.792210 -52.417136 -63.546120 54.732170 -13.921151 -14.366621 -20.762016 18.538590 7.781734 7.339201 32.385216 -6.036345 18.280463 113.207848 72.691480 104.089307 18.126492 10.073363 -26.147120 
0.330965 0.199806 0.997138 92.125062 -1.620147 88.954577 5.307182 4.918839 1.000275 -4.538154 -3.689926 1.893067 -0.093133 8.148860 -4.178311 0.000000 -0.000000 0.000000 -9.823213 -6.020035 -0.256112 1.037787 -2.083361 5.385016 6.124526 -5.738465 -5.164710 0.000000 -0.000000 0.000000 -2.415060 1.801955 2.246730 2.947507 -7.775704 18.399949 0.115932 1.856225 -5.288707 -8.745756 -8.750176 22.912053 13.100886 0.546630 9.569935 -24.797519 -15.085558 6.442540 -49.590555 -21.396809 35.802665 -52.373254 -63.466425 54.481680 -13.832722 -14.407033 -20.423557 18.344646 7.562404 7.087691 32.052280 -6.312045 18.244882 113.798421 72.434128 104.110637 18.378183 10.485943 -26.227940 
0.330727 0.199953 0.997318 92.308272 -1.629435 88.938600 5.288040 4.879696 1.007495 -4.549953 -3.846409 1.849000 -0.087431 8.135571 -4.171967 0.000000 -0.000000 0.000000 -9.807149 -6.035769 -0.242784 0.978543 -2.133520 5.431784 6.094223 -5.812428 -5.215921 0.000000 -0.000000 0.000000 -2.372729 1.656986 2.371600 2.885696 -7.867071 18.351846 0.094157 1.826100 -5.325787 -8.825860 -8.768820 23.008369 13.111729 0.650994 9.480197 -24.889148 -15.042054 6.468689 -49.484044 -21.309266 35.806386 -52.184943 -63.519190 54.189373 -13.776182 -14.396311 -20.561687 18.269283 7.461881 7.005789 31.954780 -6.520755 18.199902 114.009434 72.471296 104.350966 19.031456 10.903904 -26.730528 
0.330509 0.200005 0.997374 92.342151 -1.641675 88.965277 5.270216 4.895472 0.996415 -4.559612 -3.930825 1.782672 -0.033194 8.158091 -4.118155 0.000000 -0.000000 0.000000 -9.810615 -6.044500 -0.309256 0.969214 -2.104413 5.483181 6.059368 -5.862630 -5.227920 0.000000 -0.000000 0.000000 -2.336192 1.589538 2.419015 2.841978 -7.907529 18.342385 0.051517 1.827858 -5.404375 -8.879061 -8.885030 23.056319 13.087496 0.714489 9.450726 -24.990722 -14.988136 6.510842 -49.397822 -21.205053 35.812268 -52.085963 -63.458621 54.081002 -13.272959 -14.110930 -20.691959 18.256862 7.451367 6.978108 32.041804 -6.464296 18.197207 113.292953 72.565445 103.525095 19.013650 10.942238 -27.141675 
0.330553 0.199899 0.997200 92.255029 -1.662784 89.084178 5.242090 4.914342 0.906315 -4.554918 -3.859553 1.750513 0.000464 8.152204 -4.124110 0.000000 -0.000000 0.000000 -9.829697 -6.036066 -0.473721 0.985307 -2.099953 5.526751 6.057372 -5.811088 -5.277860 0.000000 -0.000000 0.000000 -2.389657 1.623682 2.239215 2.840793 -7.916657 18.434550 0.054599 1.852024 -5.453275 -8.881094 -8.952077 23.135720 13.056917 0.659729 9.414041 -25.012689 -14.980778 6.497766 -49.466171 -21.099995 35.846473 -51.880986 -63.302297 53.978465 -12.787844 -13.979475 -20.529238 18.314487 7.526088 7.041675 32.119002 -6.204177 18.201360 112.288907 72.534062 102.866383 18.444778 10.829425 -26.825682 
0.330345 0.199881 0.997009 92.258829 -1.658585 89.224305 5.204572 4.826336 0.694085 -4.502783 -3.746767 1.825460 -0.018332 8.117578 -4.112659 0.000000 -0.000000 0.000000 -9.837216 -6.106033 -0.602382 1.010272 -2.113731 5.468789 6.078461 -5.740640 -5.255217 0.000000 -0.000000 0.000000 -2.407747 1.670092 2.095251 2.859538 -7.985120 18.471679 0.081038 1.876465 -5.460651 -8.811555 -8.989662 23.075441 13.044212 0.532300 9.427459 -24.963712 -14.947832 6.438652 -49.576378 -21.041041 35.862325 -51.742372 -63.281765 53.784410 -12.827784 -13.848482 -20.412798 18.425082 7.648360 7.159643 32.031366 -6.020863 18.297502 112.133387 72.510795 102.971870 17.998699 10.428800 -26.201026 
0.330279 0.199773 0.996989 92.345956 -1.659179 89.317942 5.205949 4.739510 0.515791 -4.528118 -3.694215 1.938262 -0.037495 8.071851 -4.142297 0.000000 -0.000000 0.000000 -9.822385 -6.163199 -0.605758 1.004162 -2.149065 5.320309 6.106891 -5.735650 -5.208823 0.000000 -0.000000 0.000000 -2.450134 1.712870 1.987784 2.891791 -8.000630 18.508438 0.112669 1.889484 -5.527378 -8.849555 -9.041479 23.203022 13.259672 0.368953 9.128171 -24.965761 -14.951773 6.530678 -49.527372 -20.977960 35.747223 -51.637912 -63.304019 53.663019 -12.814632 -13.894557 -20.415507 18.470781 7.704718 7.308047 32.001423 -6.167277 18.245941 112.185901 72.503716 103.223710 17.853832 10.381031 -25.874041 
0.330054 0.200171 0.997080 92.318968 -1.672358 89.180063 5.160346 4.775813 0.642521 -4.513009 -3.693010 1.951518 -0.037303 8.108357 -4.147982 0.000000 -0.000000 0.000000 -9.889589 -6.131962 -0.484096 1.024758 -2.111417 5.312451 6.136147 -5.758787 -5.203395 0.000000 -0.000000 0.000000 -2.292059 1.769693 2.260545 2.819040 -7.931729 18.349385 0.027813 1.893145 -5.403626 -8.862580 -9.163283 23.097876 13.382303 0.227728 9.025255 -24.953287 -14.942935 6.416723 -49.381358 -20.978045 35.735647 -51.745940 -63.360972 53.572085 -12.932199 -14.057996 -20.366235 18.409964 7.566313 7.117529 31.868639 -6.316845 18.177185 112.287155 72.318341 103.295871 17.910646 10.388747 -25.179816 
0.330141 0.200117 0.997119 92.439346 -1.714548 89.162009 5.145554 4.835509 0.658089 -4.563308 -3.804959 1.939144 -0.054566 8.037824 -4.152555 0.000000 -0.000000 0.000000 -9.927595 -6.122689 -0.452778 1.008952 -2.183221 5.364078 6.092952 -5.787897 -5.244276 0.000000 -0.000000 0.000000 -2.358931 1.739053 2.272301 2.803935 -7.947650 18.376578 0.021303 1.864282 -5.392074 -8.737935 -9.206489 23.169968 13.459620 0.143171 8.938710 -24.937885 -14.891250 6.431166 -49.204938 -20.917091 35.651269 -52.031552 -63.604864 53.885263 -13.144407 -14.181803 -20.273466 18.430112 7.488033 7.088959 31.835357 -6.638276 18.231803 113.025749 72.419089 104.173376 17.358922 10.247910 -24.699339 
0.330223 0.200014 0.997059 92.569344 -1.740614 89.190186 5.153330 4.855410 0.659115 -4.599817 -3.914708 1.862693 -0.061176 7.952327 -4.141925 0.000000 -0.000000 0.000000 -9.924086 -6.103182 -0.524369 0.971949 -2.297096 5.509165 6.022290 -5.833620 -5.304809 0.000000 -0.000000 0.000000 -2.413195 1.676507 2.221081 2.781075 -7.971777 18.397447 -0.018284 1.796130 -5.396451 -8.754483 -9.043229 23.167543 13.496652 0.122572 8.940535 -24.931283 -14.810569 6.395934 -49.029345 -20.873777 35.586350 -52.260982 -63.704628 54.103366 -13.546967 -14.431139 -20.210845 18.457340 7.304806 6.933146 32.037688 -6.709610 18.255945 112.910779 72.559504 103.971308 17.359475 10.300553 -24.784498 
0.330050 0.200203 0.996982 92.763707 -1.750443 89.206215 5.143131 4.799353 0.624791 -4.619103 -3.968901 1.802866 -0.035409 7.878617 -4.085214 0.000000 -0.000000 0.000000 -9.921657 -6.067770 -0.577936 0.934364 -2.419488 5.634083 6.038956 -5.925751 -5.358476 0.000000 -0.000000 0.000000 -2.416362 1.552928 2.249142 2.752592 -8.040253 18.323244 -0.073643 1.764632 -5.362706 -8.698643 -8.948506 23.120604 13.556979 0.073915 8.950111 -24.946845 -14.797439 6.356554 -48.930119 -20.876714 35.529909 -52.086116 -63.717799 53.968244 -13.977167 -14.791610 -20.286750 18.513461 7.247326 6.782284 32.524267 -6.626715 18.221125 112.402058 72.937305 103.580592 17.531665 10.164703 -24.957360 
0.330235 0.199839 0.996824 92.854608 -1.727622 89.339585 5.189310 4.706374 0.441376 -4.633344 -3.885856 1.860693 -0.025510 7.801896 -4.083051 0.000000 -0.000000 0.000000 -9.852844 -6.114400 -0.695385 0.915545 -2.548408 5.640099 6.015222 -5.895579 -5.363767 0.000000 -0.000000 0.000000 -2.601817 1.508391 1.938126 2.828747 -8.144865 18.581893 -0.039667 1.809179 -5.466276 -8.603091 -8.853431 23.079827 13.645349 0.029927 8.952869 -25.009060 -14.776171 6.387216 -48.880227 -20.958271 35.479134 -51.960766 -63.633549 53.753250 -14.259688 -15.037016 -20.287945 18.756453 7.292232 6.802388 32.954755 -6.373379 18.166320 111.584830 73.325783 102.796587 17.748897 10.067404 -25.144618 
0.330533 0.199715 0.996642 92.828483 -1.720870 89.411211 5.168711 4.663536 0.352113 -4.582838 -3.755539 1.929360 0.002514 7.721689 -4.121102 0.000000 -0.000000 0.000000 -9.883254 -6.191358 -0.708938 0.973955 -2.591938 5.563112 6.051707 -5.758527 -5.296837 0.000000 -0.000000 0.000000 -2.746814 1.587919 1.656581 2.902177 -8.175927 18.901905 0.025049 1.848564 -5.583142 -8.369880 -8.817436 23.003972 13.564119 -0.177624 8.846853 -24.973840 -14.851016 6.431940 -49.115887 -21.070141 35.536191 -51.514628 -63.540545 53.476324 -14.384760 -15.085916 -20.179174 18.886581 7.490677 7.010432 33.474674 -6.309523 18.165536 111.266208 73.800457 102.674433 17.837566 10.144893 -25.490526 
0.331182 0.199198 0.996302 92.643319 -1.731978 89.460583 5.202579 4.692376 0.376461 -4.607883 -3.631388 1.925551 0.009475 7.764094 -4.128288 0.000000 -0.000000 0.000000 -9.871233 -6.170299 -0.717840 0.967255 -2.525682 5.497190 6.106692 -5.682153 -5.277763 0.000000 -0.000000 0.000000 -2.973299 1.780781 1.349531 2.986431 -8.089918 19.179769 0.151722 1.887552 -5.648420 -8.301909 -8.865699 22.942211 13.665056 -0.393024 8.763828 -24.880420 -14.935653 6.598433 -49.323924 -21.257547 35.555042 -51.206875 -63.432391 53.322243 -14.027503 -14.829047 -20.292515 19.016564 7.551112 7.271440 33.685502 -6.510814 18.006470 111.299428 74.092760 102.768823 18.662771 10.495806 -26.578083 
0.331300 0.199261 0.996289 92.725327 -1.737952 89.439498 5.187091 4.637595 0.340125 -4.623839 -3.718857 2.008749 0.015253 7.844703 -4.126659 0.000000 -0.000000 0.000000 -9.874236 -6.176883 -0.611691 0.966927 -2.453688 5.378359 6.111814 -5.839117 -5.227188 0.000000 -0.000000 0.000000 -2.918300 1.869570 1.436401 2.984312 -8.007787 18.982645 0.172407 1.820988 -5.544586 -8.328179 -9.077313 22.883825 13.812295 -0.559751 8.595210 -24.878564 -14.947461 6.602372 -49.367577 -21.414276 35.865182 -51.142539 -63.427063 52.929212 -12.721927 -14.250240 -20.724858 18.847560 7.293124 7.146260 34.030114 -7.218576 18.110377 111.479827 74.350743 102.447593 18.461947 10.548515 -28.084032 
0.331650 0.199681 0.996420 93.042762 -1.747189 89.279923 5.152387 4.610216 0.419346 -4.638288 -4.070157 2.082940 0.027100 7.963723 -4.143027 0.000000 -0.000000 0.000000 -9.897898 -6.215408 -0.303423 0.970319 -2.374713 5.260858 6.028936 -6.154351 -5.254634 0.000000 -0.000000 0.000000 -2.770563 1.791524 1.644061 2.969017 -7.997563 18.756446 0.167982 1.690963 -5.358757 -8.497508 -9.555031 22.857171 13.801627 -0.540611 8.389450 -25.084380 -14.933349 6.584362 -49.334877 -21.497595 36.302696 -50.992777 -63.509885 52.162458 -10.254386 -13.122303 -21.400433 18.615587 6.883654 6.792090 34.243793 -8.335814 18.368250 111.934581 74.627074 101.925500 17.278476 10.747392 -30.121821 
